<mxfile host="Electron" modified="2023-05-08T07:50:20.185Z" agent="Mozilla/5.0 (Macintosh; Intel Mac OS X 10_15_7) AppleWebKit/537.36 (KHTML, like Gecko) draw.io/21.2.8 Chrome/112.0.5615.165 Electron/24.2.0 Safari/537.36" etag="UK4rv6MYLmHvNIdSA_t8" version="21.2.8" type="device">
  <diagram name="Page-1" id="ClLb21L-YNPrtEjNxc2b">
    <mxGraphModel dx="1114" dy="974" grid="1" gridSize="10" guides="1" tooltips="1" connect="1" arrows="1" fold="1" page="1" pageScale="1" pageWidth="827" pageHeight="1169" math="0" shadow="0">
      <root>
        <mxCell id="0" />
        <mxCell id="1" parent="0" />
        <mxCell id="xUONxnw8ljr_jnJsV8KF-4" style="edgeStyle=orthogonalEdgeStyle;rounded=0;orthogonalLoop=1;jettySize=auto;html=1;exitX=0.75;exitY=0;exitDx=0;exitDy=0;entryX=0.75;entryY=1;entryDx=0;entryDy=0;" edge="1" parent="1" source="xUONxnw8ljr_jnJsV8KF-1" target="xUONxnw8ljr_jnJsV8KF-2">
          <mxGeometry relative="1" as="geometry" />
        </mxCell>
        <mxCell id="xUONxnw8ljr_jnJsV8KF-1" value="GSkit&lt;br&gt;IBM" style="rounded=0;whiteSpace=wrap;html=1;fillColor=#e1d5e7;strokeColor=#9673a6;" vertex="1" parent="1">
          <mxGeometry x="320" y="440" width="120" height="60" as="geometry" />
        </mxCell>
        <mxCell id="xUONxnw8ljr_jnJsV8KF-5" style="edgeStyle=orthogonalEdgeStyle;rounded=0;orthogonalLoop=1;jettySize=auto;html=1;exitX=0.25;exitY=1;exitDx=0;exitDy=0;entryX=0.25;entryY=0;entryDx=0;entryDy=0;" edge="1" parent="1" source="xUONxnw8ljr_jnJsV8KF-2" target="xUONxnw8ljr_jnJsV8KF-1">
          <mxGeometry relative="1" as="geometry" />
        </mxCell>
        <mxCell id="xUONxnw8ljr_jnJsV8KF-10" style="edgeStyle=orthogonalEdgeStyle;rounded=0;orthogonalLoop=1;jettySize=auto;html=1;exitX=0.75;exitY=0;exitDx=0;exitDy=0;entryX=0.75;entryY=1;entryDx=0;entryDy=0;" edge="1" parent="1" source="xUONxnw8ljr_jnJsV8KF-2" target="xUONxnw8ljr_jnJsV8KF-7">
          <mxGeometry relative="1" as="geometry" />
        </mxCell>
        <mxCell id="xUONxnw8ljr_jnJsV8KF-2" value="LoLevel API&lt;br&gt;new(),exec()..&lt;br&gt;Niels&lt;br&gt;(Limit agnostic)" style="rounded=0;whiteSpace=wrap;html=1;fillColor=#dae8fc;strokeColor=#6c8ebf;" vertex="1" parent="1">
          <mxGeometry x="320" y="340" width="120" height="60" as="geometry" />
        </mxCell>
        <mxCell id="xUONxnw8ljr_jnJsV8KF-11" style="edgeStyle=orthogonalEdgeStyle;rounded=0;orthogonalLoop=1;jettySize=auto;html=1;exitX=0.25;exitY=1;exitDx=0;exitDy=0;entryX=0.25;entryY=0;entryDx=0;entryDy=0;" edge="1" parent="1" source="xUONxnw8ljr_jnJsV8KF-7" target="xUONxnw8ljr_jnJsV8KF-2">
          <mxGeometry relative="1" as="geometry" />
        </mxCell>
        <mxCell id="xUONxnw8ljr_jnJsV8KF-7" value="HighLevel API&lt;br&gt;get(),post()..&lt;br&gt;Mihael&lt;br&gt;(Limits OK)" style="rounded=0;whiteSpace=wrap;html=1;fillColor=#d5e8d4;strokeColor=#82b366;" vertex="1" parent="1">
          <mxGeometry x="320" y="240" width="120" height="60" as="geometry" />
        </mxCell>
        <mxCell id="xUONxnw8ljr_jnJsV8KF-15" style="edgeStyle=orthogonalEdgeStyle;rounded=0;orthogonalLoop=1;jettySize=auto;html=1;exitX=0.5;exitY=1;exitDx=0;exitDy=0;entryX=0;entryY=0.5;entryDx=0;entryDy=0;" edge="1" parent="1" source="xUONxnw8ljr_jnJsV8KF-12" target="xUONxnw8ljr_jnJsV8KF-7">
          <mxGeometry relative="1" as="geometry" />
        </mxCell>
        <mxCell id="xUONxnw8ljr_jnJsV8KF-16" style="edgeStyle=orthogonalEdgeStyle;rounded=0;orthogonalLoop=1;jettySize=auto;html=1;exitX=0.25;exitY=1;exitDx=0;exitDy=0;entryX=0;entryY=0.5;entryDx=0;entryDy=0;" edge="1" parent="1" source="xUONxnw8ljr_jnJsV8KF-12" target="xUONxnw8ljr_jnJsV8KF-2">
          <mxGeometry relative="1" as="geometry" />
        </mxCell>
        <mxCell id="xUONxnw8ljr_jnJsV8KF-12" value="Prototypes&lt;br&gt;RPG&lt;br&gt;Mihael" style="rounded=0;whiteSpace=wrap;html=1;fillColor=#d5e8d4;strokeColor=#82b366;" vertex="1" parent="1">
          <mxGeometry x="240" y="140" width="120" height="60" as="geometry" />
        </mxCell>
        <mxCell id="xUONxnw8ljr_jnJsV8KF-14" style="edgeStyle=orthogonalEdgeStyle;rounded=0;orthogonalLoop=1;jettySize=auto;html=1;exitX=0.5;exitY=1;exitDx=0;exitDy=0;entryX=1;entryY=0.5;entryDx=0;entryDy=0;" edge="1" parent="1" source="xUONxnw8ljr_jnJsV8KF-13" target="xUONxnw8ljr_jnJsV8KF-2">
          <mxGeometry relative="1" as="geometry" />
        </mxCell>
        <mxCell id="xUONxnw8ljr_jnJsV8KF-13" value="Prototypes&lt;br&gt;C&lt;br&gt;Niels" style="rounded=0;whiteSpace=wrap;html=1;fillColor=#dae8fc;strokeColor=#6c8ebf;" vertex="1" parent="1">
          <mxGeometry x="400" y="140" width="120" height="60" as="geometry" />
        </mxCell>
        <mxCell id="xUONxnw8ljr_jnJsV8KF-18" style="edgeStyle=orthogonalEdgeStyle;rounded=0;orthogonalLoop=1;jettySize=auto;html=1;exitX=0.5;exitY=1;exitDx=0;exitDy=0;entryX=0.5;entryY=0;entryDx=0;entryDy=0;" edge="1" parent="1" source="xUONxnw8ljr_jnJsV8KF-17" target="xUONxnw8ljr_jnJsV8KF-12">
          <mxGeometry relative="1" as="geometry" />
        </mxCell>
        <mxCell id="xUONxnw8ljr_jnJsV8KF-17" value="RPG&lt;br&gt;Applications" style="rounded=0;whiteSpace=wrap;html=1;fillColor=#d5e8d4;strokeColor=#82b366;" vertex="1" parent="1">
          <mxGeometry x="200" y="20" width="120" height="60" as="geometry" />
        </mxCell>
        <mxCell id="xUONxnw8ljr_jnJsV8KF-20" style="edgeStyle=orthogonalEdgeStyle;rounded=0;orthogonalLoop=1;jettySize=auto;html=1;entryX=0.5;entryY=0;entryDx=0;entryDy=0;" edge="1" parent="1" source="xUONxnw8ljr_jnJsV8KF-19" target="xUONxnw8ljr_jnJsV8KF-13">
          <mxGeometry relative="1" as="geometry" />
        </mxCell>
        <mxCell id="xUONxnw8ljr_jnJsV8KF-19" value="C&lt;br&gt;Applications&lt;br&gt;IceBreak" style="rounded=0;whiteSpace=wrap;html=1;fillColor=#dae8fc;strokeColor=#6c8ebf;" vertex="1" parent="1">
          <mxGeometry x="450" y="20" width="120" height="60" as="geometry" />
        </mxCell>
        <mxCell id="xUONxnw8ljr_jnJsV8KF-22" value="" style="endArrow=none;dashed=1;html=1;dashPattern=1 3;strokeWidth=2;rounded=0;" edge="1" parent="1">
          <mxGeometry width="50" height="50" relative="1" as="geometry">
            <mxPoint x="120" y="100" as="sourcePoint" />
            <mxPoint x="720" y="100" as="targetPoint" />
          </mxGeometry>
        </mxCell>
        <mxCell id="xUONxnw8ljr_jnJsV8KF-24" style="edgeStyle=orthogonalEdgeStyle;rounded=0;orthogonalLoop=1;jettySize=auto;html=1;exitX=1;exitY=0.5;exitDx=0;exitDy=0;entryX=0;entryY=0.5;entryDx=0;entryDy=0;" edge="1" parent="1" source="xUONxnw8ljr_jnJsV8KF-23" target="xUONxnw8ljr_jnJsV8KF-12">
          <mxGeometry relative="1" as="geometry" />
        </mxCell>
        <mxCell id="xUONxnw8ljr_jnJsV8KF-23" value="Demo&lt;br&gt;UnitTest" style="rounded=0;whiteSpace=wrap;html=1;fillColor=#d5e8d4;strokeColor=#82b366;" vertex="1" parent="1">
          <mxGeometry x="40" y="140" width="120" height="60" as="geometry" />
        </mxCell>
      </root>
    </mxGraphModel>
  </diagram>
</mxfile>
